<svg id="Ico" xmlns="http://www.w3.org/2000/svg" width="77" height="77" viewBox="0 0 77 77">
  <defs>
    <style>
      .cls-1 {
        fill: #ffc000;
      }

      .cls-2 {
        fill: #fff;
        fill-rule: evenodd;
      }
    </style>
  </defs>
  <circle id="Эллипс_1" data-name="Эллипс 1" class="cls-1" cx="38.5" cy="38.5" r="38.5"/>
  <path id="Forma_1" data-name="Forma 1" class="cls-2" d="M391.094,1369.07a1.258,1.258,0,0,0,0-1.78l-1.89-1.89a1.255,1.255,0,0,0-1.6-.15l-3.974,2.7,2.684-4a1.254,1.254,0,0,0-.155-1.59l-4.1-4.1a1.262,1.262,0,0,0-1.437-.25l-0.709.34,0.34-.75a1.262,1.262,0,0,0-.258-1.41l-1.287-1.28a1.245,1.245,0,0,0-1.781,0l-10,9.99,14.164,14.16Zm-26.021-2.31-2.893,2.89a1.27,1.27,0,0,0,0,1.79l2.745,2.74a2.46,2.46,0,0,1-.419,3.81c-8.065,5.14-8.817,5.89-9.064,6.14a4.547,4.547,0,0,0,6.431,6.43c0.247-.25,1-1,6.14-9.07a2.438,2.438,0,0,1,1.8-1.12,2.471,2.471,0,0,1,2,.7l2.745,2.75a1.263,1.263,0,0,0,1.781,0l2.893-2.89Zm-5.08,21.76a1.781,1.781,0,0,1-2.517-2.52A1.781,1.781,0,1,1,359.993,1388.52Z" transform="translate(-334 -1335)"/>
</svg>
